<?xml version="1.0" encoding="UTF-8" standalone="no"?>
<!-- Created with Inkscape (http://www.inkscape.org/) -->

<svg
   xmlns:dc="http://purl.org/dc/elements/1.1/"
   xmlns:cc="http://creativecommons.org/ns#"
   xmlns:rdf="http://www.w3.org/1999/02/22-rdf-syntax-ns#"
   xmlns:svg="http://www.w3.org/2000/svg"
   xmlns="http://www.w3.org/2000/svg"
   xmlns:sodipodi="http://sodipodi.sourceforge.net/DTD/sodipodi-0.dtd"
   xmlns:inkscape="http://www.inkscape.org/namespaces/inkscape"
   width="210mm"
   height="297mm"
   viewBox="0 0 210 297"
   version="1.1"
   id="svg8"
   inkscape:version="0.92.4 (5da689c313, 2019-01-14)"
   sodipodi:docname="irockRickRaiva.svg">
  <defs
     id="defs2" />
  <sodipodi:namedview
     id="base"
     pagecolor="#ffffff"
     bordercolor="#666666"
     borderopacity="1.0"
     inkscape:pageopacity="0.0"
     inkscape:pageshadow="2"
     inkscape:zoom="0.35"
     inkscape:cx="400"
     inkscape:cy="560"
     inkscape:document-units="mm"
     inkscape:current-layer="layer1"
     showgrid="false"
     inkscape:window-width="1366"
     inkscape:window-height="705"
     inkscape:window-x="-8"
     inkscape:window-y="-8"
     inkscape:window-maximized="1" />
  <metadata
     id="metadata5">
    <rdf:RDF>
      <cc:Work
         rdf:about="">
        <dc:format>image/svg+xml</dc:format>
        <dc:type
           rdf:resource="http://purl.org/dc/dcmitype/StillImage" />
        <dc:title></dc:title>
      </cc:Work>
    </rdf:RDF>
  </metadata>
  <g
     inkscape:label="Camada 1"
     inkscape:groupmode="layer"
     id="layer1">
    <g
       id="g62">
      <g
         transform="translate(13.607031,4.5356454)"
         id="g99">
        <g
           id="g74"
           transform="translate(18.89881,-14.363095)">
          <path
             inkscape:connector-curvature="0"
             id="rect59"
             d="M 18.898809,64.922504 V 169.2443 H 132.29189 V 64.922504 Z"
             style="fill:#b3b3b3;fill-opacity:1;stroke:none;stroke-width:0.1;stroke-miterlimit:4;stroke-dasharray:none;stroke-opacity:0.77889446" />
          <path
             id="path61"
             transform="scale(0.26458333)"
             d="m 220,273.94922 a 48.571429,90 0 0 0 -48.57227,90 48.571429,90 0 0 0 48.57227,90 48.571429,90 0 0 0 48.57227,-90 48.571429,90 0 0 0 -48.57227,-90 z m 145.71484,2.85547 a 48.571429,90 0 0 0 -48.57226,90 48.571429,90 0 0 0 48.57226,90 48.571429,90 0 0 0 48.57032,-90 48.571429,90 0 0 0 -48.57032,-90 z"
             style="fill:#ececec;fill-opacity:1;stroke:none;stroke-width:0.37795275;stroke-miterlimit:4;stroke-dasharray:none;stroke-opacity:0.77889446"
             inkscape:connector-curvature="0" />
        </g>
        <ellipse
           style="fill:#000000;fill-opacity:1;stroke:none;stroke-width:0.1;stroke-miterlimit:4;stroke-dasharray:none;stroke-opacity:0.77889446"
           id="path76"
           cx="80.886917"
           cy="83.821434"
           rx="5.2916665"
           ry="13.607142" />
        <ellipse
           ry="13.607142"
           rx="5.2916665"
           cy="83.065483"
           cx="108.85715"
           id="ellipse78"
           style="fill:#000000;fill-opacity:1;stroke:none;stroke-width:0.1;stroke-miterlimit:4;stroke-dasharray:none;stroke-opacity:0.77889446" />
        <path
           style="fill:#ff8080;stroke:#000000;stroke-width:0.25853625px;stroke-linecap:butt;stroke-linejoin:miter;stroke-opacity:1"
           d="m 60.178452,110.93576 c 1.02864,0 2.071274,-0.24224 3.08592,0 0.286983,0.0685 0.411454,0.58939 0.617182,0.88407 0.205728,0.2947 0.411455,0.58939 0.617183,0.88409 0.482075,0.69054 1.318983,2.14366 1.851551,2.65224 0.382762,0.36553 0.851606,0.51857 1.234368,0.88409 0.242078,0.23118 0.356955,0.6977 0.617183,0.88408 0.18401,0.13179 0.411455,0 0.617183,0 0.411457,0.58939 0.750209,1.30581 1.234367,1.76816 0.171177,0.16347 0.433176,-0.13179 0.617184,0 0.520456,0.37276 0.713911,1.39541 1.234368,1.76817 0.184007,0.13179 0.471712,-0.20838 0.617183,0 0.145473,0.20838 -0.145471,0.6757 0,0.88408 0.145473,0.20838 0.433175,-0.13179 0.617182,0 0.520457,0.37276 0.682342,1.50458 1.234368,1.76816 0.390342,0.18638 0.86635,-0.26358 1.234369,0 0.184007,0.1318 0,0.58939 0,0.88409 0.411455,0.29469 0.78808,0.72425 1.234365,0.88408 0.399171,0.14294 0.822913,0 1.234368,0 0.205728,0 0.433174,-0.13179 0.617183,0 0.260228,0.18638 0.375104,0.6529 0.617183,0.88408 0.382762,0.36552 0.822912,0.58939 1.234368,0.88407 0.411455,0.29471 0.78808,0.72427 1.234366,0.88408 0.39917,0.14296 0.822912,0 1.234368,0 0.405556,0 1.503335,-0.16625 1.851551,0 4.470516,2.1346 -0.973056,-0.25488 1.85155,1.76817 0.18783,0.13453 1.573598,0 1.851552,0 1.440093,0 2.880187,0 4.320283,0 2.674459,0 5.348926,0 8.02339,0 0.59797,0 3.33509,0.17572 3.7031,0 0.43642,-0.20838 0.78808,-0.72425 1.23436,-0.88408 0.5445,-0.19499 1.94003,0.25245 2.46874,0 4.47052,-2.13459 -0.97306,0.25488 1.85155,-1.76817 0.27463,-0.19669 2.18644,0.1348 2.46874,0 0.55202,-0.26358 0.71391,-1.39539 1.23436,-1.76815 0.18401,-0.13179 0.43317,0.13179 0.61718,0 0.26023,-0.18639 0.34117,-0.75229 0.61719,-0.88408 0.44662,-0.21326 2.26529,0.29142 2.46874,0 0.14547,-0.20838 0,-0.58939 0,-0.88409 0.20572,0 0.47171,0.20838 0.61718,0 0.14547,-0.20838 -0.14547,-0.6757 0,-0.88408 0.14547,-0.20838 0.47171,0.20838 0.61718,0 0.14547,-0.20838 -0.18401,-0.75229 0,-0.88408 0.36801,-0.26358 0.86635,0.26358 1.23436,0 0.18402,-0.13179 -0.092,-0.6205 0,-0.88408 0.13012,-0.37276 0.41146,-0.58939 0.61719,-0.88409 0.20573,-0.29469 0.35695,-0.6977 0.61718,-0.88408 0.18401,-0.13179 0.43318,0.13179 0.61718,0 0.26023,-0.18638 0.35697,-0.6977 0.61719,-0.88408 0.18401,-0.13179 0.47171,0.20838 0.61719,0 0.29094,-0.41676 -0.18402,-1.241 0,-1.76816 0.1301,-0.37276 0.48706,-0.51132 0.61718,-0.88409 0.092,-0.26358 -0.14547,-0.6757 0,-0.88408 0.14547,-0.20838 0.47171,0.20838 0.61718,0 0.14547,-0.20838 -0.14547,-0.6757 0,-0.88408 0.14547,-0.20838 0.47171,0.20838 0.61718,0 0.14547,-0.20838 0,-0.58939 0,-0.88408 0,-1.47348 0,-2.94693 0,-4.42041 0,-0.29469 0,-0.58938 0,-0.88408 0,-0.29469 -0.20572,-0.88408 0,-0.88408 0.20573,0 -0.20572,0.88408 0,0.88408 0.29094,0 0.34117,-0.75229 0.61719,-0.88408 0.5855,-0.27957 1.23436,0 1.85155,0 0.20573,0 0.43317,-0.13179 0.61719,0 0.26022,0.18638 0.48706,0.51131 0.61718,0.88408 0.092,0.26358 -0.092,0.6205 0,0.88408 0.13011,0.37276 0.52517,0.4887 0.61718,0.88408 0.56763,2.4393 -0.69951,2.00403 -1.23436,3.53633 -0.42567,1.21946 0.74744,0.79078 -0.61719,1.76816 -0.18401,0.13179 -0.47171,-0.20838 -0.61719,0 -0.14547,0.20838 -0.20572,0.88408 0,0.88408 0.29095,0 0.61719,-1.30084 0.61719,-0.88408 0,0.65895 -0.47171,1.14303 -0.61719,1.76817 -0.12948,0.55644 0,3.62353 0,4.42041 0,1.76816 0,3.53633 0,5.30449 0,0.2947 0.14548,0.67569 0,0.88407 -0.14547,0.20839 -0.47171,-0.20838 -0.61718,0 -0.30859,0.44205 0.30859,2.21021 0,2.65225 -0.14547,0.20838 -0.47172,-0.20838 -0.61718,0 -0.14547,0.20838 0.092,0.6205 0,0.88408 -0.13011,0.37277 -0.48707,0.51133 -0.61719,0.88409 -0.1674,0.4796 0.16888,3.29442 0,3.53633 -0.14547,0.20837 -0.47171,-0.20839 -0.61718,0 -0.12617,0.18073 0.12236,2.30171 0,2.65224 -0.13012,0.37276 -0.48707,0.51132 -0.61718,0.88408 -0.76005,2.17745 1.79152,-0.79809 -0.61718,2.65225 -0.14548,0.20838 -0.47172,-0.20838 -0.61719,0 -0.14548,0.20838 0.14547,0.67569 0,0.88408 -0.14548,0.20838 -0.47171,-0.20839 -0.61719,0 -0.14547,0.20838 0.14548,0.67571 0,0.88409 -0.29094,0.41675 -0.86634,-0.26358 -1.23436,0 -0.52046,0.37275 -0.68234,1.50457 -1.23437,1.76815 -0.41987,0.20048 -2.75867,-0.23439 -3.08592,0 -0.26023,0.18639 -0.35695,0.6977 -0.61718,0.88408 -0.18783,0.13453 -1.5736,0 -1.85155,0 -0.20572,0 -0.41146,0 -0.61718,0 -0.20573,0 -0.61718,0.2947 -0.61718,0 0,-0.29469 0.8229,0 0.61718,0 -0.41146,0 -0.84403,-0.18638 -1.23437,0 -1.92642,0.91985 0.20573,0.58939 -0.61718,1.76817 -0.028,0.0401 -2.79492,0 -3.08592,0 -0.20573,0 -0.47171,-0.20838 -0.61718,0 -0.14547,0.20838 0.14547,0.6757 0,0.88408 -0.14547,0.20838 -0.41146,0 -0.61719,0 -0.20573,0 -0.41145,0 -0.61718,0 -2.46874,0 -4.93747,0 -7.406208,0 -6.789013,0 -13.578035,0 -20.367053,0 -3.497374,0 -6.994746,0 -10.49212,0 -1.440096,0 -2.880189,0 -4.320285,0 -0.405556,0 -1.503336,0.16627 -1.851551,0 -0.436413,-0.20838 -0.797952,-0.6757 -1.234365,-0.88408 -0.587935,-0.28072 -2.484751,0.28704 -3.08592,0 -0.436413,-0.20838 -0.82291,-0.58939 -1.234365,-0.88409 -0.411456,-0.29469 -0.851606,-0.51855 -1.234368,-0.88408 -0.242079,-0.23117 -0.341171,-0.75229 -0.617184,-0.88408 -3.497374,0 -0.205726,0.58939 -1.234367,-0.88408 -0.145471,-0.20838 -0.47171,0.20839 -0.617183,0 -0.145473,-0.20838 0,-0.58938 0,-0.88407 0,-1.47347 0,-2.94695 0,-4.42042 0,-0.47229 0.08832,-4.16738 0,-4.42041 -0.130114,-0.37275 -0.487069,-0.51131 -0.617183,-0.88408 -0.01613,-0.0463 -0.01613,-2.60599 0,-2.65225 1.284284,-3.67933 -0.04261,0.94512 1.234366,-0.88408 0.145473,-0.20838 -0.145471,-0.6757 0,-0.88408 0.145473,-0.20838 0.411455,0 0.617185,0 0.205728,0 0.411456,0 0.617182,0 0.205728,0 0.411456,0 0.617184,0 0.205727,0 0.471712,0.20838 0.617183,0 1.276974,-1.82919 -1.951386,0.0715 0.617185,-1.76817 0.184007,-0.13179 0.433173,0.13179 0.617183,0 0.260228,-0.18638 0.411455,-0.58937 0.617182,-0.88407 0.205728,-0.29469 0.487071,-0.51132 0.617185,-0.88408 0.193956,-0.55567 -0.193956,-2.98067 0,-3.53633 1.284285,-3.67933 -0.04261,0.94511 1.234367,-0.88408 0.145472,-0.20838 -0.145471,-0.67571 0,-0.88409 0.145472,-0.20838 0.471712,0.20838 0.617182,0 0.145473,-0.20838 0,-0.58938 0,-0.88408 0,-2.65224 0,-5.30449 0,-7.95673 z"
           id="path80"
           inkscape:connector-curvature="0" />
        <path
           style="fill:#ffd5d5;stroke:#000000;stroke-width:0.2300697px;stroke-linecap:butt;stroke-linejoin:miter;stroke-opacity:1"
           d="m 54.62823,144.06347 c 2.952524,-0.0739 5.91455,0.071 8.857571,-0.22188 0.28227,-0.0281 0.365177,-0.5311 0.600849,-0.71915 0.372632,-0.29733 0.776834,-0.54965 1.2017,-0.71915 0.38001,-0.15161 0.843421,0.21441 1.201698,0 0.253341,-0.15161 0.332142,-0.61194 0.600852,-0.71914 0.380008,-0.15161 0.821688,0.15161 1.201697,0 0.537417,-0.21441 0.695018,-1.13508 1.201701,-1.4383 0.377645,-0.22599 2.025749,0.226 2.403397,0 0.253341,-0.1516 0.347508,-0.56753 0.60085,-0.71914 0.179139,-0.10721 0.421711,0.1072 0.600848,0 0.253341,-0.15161 0.400569,-0.47943 0.600851,-0.71915 0.610775,-0.73102 0.832522,-1.14804 1.80255,-1.43828 0.388606,-0.11628 0.84342,0.2144 1.201697,0 0.17914,-0.10722 -0.14162,-0.54965 0,-0.71916 0.141623,-0.1695 0.421712,0.10721 0.60085,0 0.253341,-0.15161 0.332141,-0.61194 0.600851,-0.71914 0.380009,-0.15161 0.801131,0 1.201697,0 0.200283,0 0.421712,0.1072 0.600851,0 0.25334,-0.15161 0.347509,-0.56753 0.60085,-0.71915 0.157988,-0.0946 2.089201,0 2.403398,0 1.802549,0 3.605098,0 5.407647,0 1.001415,0 2.002832,0 3.004251,0 0.20028,0 0.400559,0 0.600847,0 0.20028,0 0.42171,-0.1072 0.600848,0 0.506685,0.30323 0.695019,1.13508 1.201695,1.43829 0.358284,0.21441 0.843429,-0.2144 1.201704,0 0.867161,0.51895 0.334541,0.91935 1.201695,1.4383 0.179146,0.1072 0.421718,-0.1072 0.600856,0 0.253334,0.15161 0.347505,0.56753 0.600848,0.71914 0.179137,0.10721 0.42171,-0.1072 0.600847,0 0.920248,0.55072 0.469877,1.28153 1.201704,2.15744 0.141621,0.16951 0.459225,-0.1695 0.600847,0 0.141622,0.16951 -0.141622,0.54964 0,0.71915 0.141622,0.1695 0.459226,-0.16951 0.600853,0 0.28324,0.33901 -0.179143,1.00947 0,1.43829 0.25334,0.60644 0.94836,0.83186 1.2017,1.43829 0.53182,1.27305 -0.89373,0.24573 0.60085,1.4383 0.37263,0.29732 0.88502,0.34011 1.20169,0.71914 0.14162,0.16951 -0.0896,0.50474 0,0.71914 0.50085,1.19892 1.2017,0.32494 1.2017,2.15745"
           id="path90"
           inkscape:connector-curvature="0" />
      </g>
      <rect
         y="55.095055"
         x="62.446198"
         height="99.785912"
         width="102.35154"
         id="rect30"
         style="fill:#b3b3b3;fill-opacity:1;stroke:none;stroke-width:0.1962655;stroke-miterlimit:4;stroke-dasharray:none;stroke-opacity:0.77889446" />
      <ellipse
         transform="matrix(0.39186597,-0.92002232,-0.98531102,0.17076941,0,0)"
         ry="13.256608"
         rx="27.852285"
         cy="-174.26225"
         cx="-124.68612"
         id="path32"
         style="fill:#e6e6e6;fill-opacity:1;stroke:none;stroke-width:0.14099719;stroke-miterlimit:4;stroke-dasharray:none;stroke-opacity:0.77889446" />
      <ellipse
         style="fill:#e6e6e6;fill-opacity:1;stroke:none;stroke-width:0.14099719;stroke-miterlimit:4;stroke-dasharray:none;stroke-opacity:0.77889446"
         id="ellipse34"
         cx="-132.97774"
         cy="-40.725143"
         rx="27.852285"
         ry="13.256608"
         transform="matrix(-0.43486471,-0.9004958,-0.51981886,0.85427651,0,0)" />
      <ellipse
         ry="13.607142"
         rx="4.9136906"
         cy="101.20834"
         cx="109.23512"
         id="path36"
         style="fill:#1a1a1a;fill-opacity:1;stroke:none;stroke-width:0.1;stroke-miterlimit:4;stroke-dasharray:none;stroke-opacity:0.77889446" />
      <ellipse
         style="fill:#1a1a1a;fill-opacity:1;stroke:none;stroke-width:0.1;stroke-miterlimit:4;stroke-dasharray:none;stroke-opacity:0.77889446"
         id="ellipse38"
         cx="88.824409"
         cy="98.940483"
         rx="4.9136906"
         ry="13.607142" />
      <rect
         transform="matrix(0.72738839,0.686226,-0.63497211,0.77253506,0,0)"
         y="-42.682518"
         x="135.89798"
         height="44.951778"
         width="4.5574965"
         id="rect40"
         style="fill:#1a1a1a;fill-opacity:1;stroke:none;stroke-width:0.06727901;stroke-miterlimit:4;stroke-dasharray:none;stroke-opacity:0.77889446" />
      <rect
         style="fill:#1a1a1a;fill-opacity:1;stroke:none;stroke-width:0.06749861;stroke-miterlimit:4;stroke-dasharray:none;stroke-opacity:0.77889446"
         id="rect42"
         width="4.5860786"
         height="44.963692"
         x="5.9789124"
         y="82.881416"
         transform="matrix(0.73377338,-0.67939431,0.65990533,0.75134876,0,0)" />
      <path
         inkscape:connector-curvature="0"
         id="path44"
         d="m 68.23526,148.59911 c 2.453325,-1.43383 5.130083,-2.54017 7.359978,-4.30149 0.395478,-0.31238 0,-1.00794 0,-1.51191 0,-1.5119 0,-3.02381 0,-4.53571 0,-0.7097 -0.144385,-3.34661 0,-3.77976 0.112689,-0.33808 0.503968,-0.50397 0.755952,-0.75596 0.251984,-0.50396 0.619294,-0.96527 0.755952,-1.5119 0.122229,-0.48892 -0.15937,-1.0338 0,-1.5119 0.08472,-0.25415 2.844172,-2.84418 3.023809,-3.02381 0.251983,-0.25199 0.643263,-0.41788 0.755954,-0.75596 0,-4.28373 -0.503971,-0.25198 0.755951,-1.5119 0.178179,-0.17818 -0.07968,-0.5169 0,-0.75596 0.178179,-0.53453 0.357529,-1.11348 0.755952,-1.5119 0.178181,-0.17818 0.577773,0.17818 0.755952,0 0.178181,-0.17818 -0.112689,-0.53057 0,-0.75595 0.159369,-0.31874 0.596585,-0.43722 0.755954,-0.75595 0.112689,-0.22538 -0.178181,-0.57778 0,-0.75596 0.161621,-0.16162 2.607032,0.13893 3.023809,0 0.534538,-0.17818 0.977366,-0.57777 1.511903,-0.75595 0.239054,-0.0797 0.530572,0.11269 0.755955,0 0.318735,-0.15937 0.437213,-0.59658 0.755951,-0.75595 0.225383,-0.11269 0.530572,0.11269 0.755952,0 0.318738,-0.15937 0.437216,-0.59658 0.755954,-0.75595 0.22538,-0.11269 0.577771,0.17818 0.755952,0 0.513537,-0.51354 -0.772949,-1.50341 0.755951,-2.26786 0.230063,-0.11503 1.927408,0 2.267858,0 1.511906,0 3.023809,0 4.535715,0 1.511906,0 3.023806,0 4.535716,0 0.25198,0 0.50397,0 0.75595,0 0.25198,0 0.53057,-0.11269 0.75595,0 0.31874,0.15937 0.43722,0.59658 0.75595,0.75595 0.22539,0.11269 0.50397,0 0.75596,0 0.50397,0.25199 1.04308,0.44341 1.5119,0.75595 0.29651,0.19768 0.43722,0.59659 0.75595,0.75596 0.45077,0.22538 1.06115,-0.22538 1.51191,0 0.31874,0.15937 0.45944,0.55828 0.75595,0.75595 0.46882,0.31255 1.04308,0.4434 1.51191,0.75595 0.2965,0.19768 0.41788,0.64326 0.75595,0.75595 0.47811,0.15937 1.0338,-0.15937 1.5119,0 0.33807,0.1127 0.45945,0.55828 0.75596,0.75596 0.93764,0.62509 2.08616,0.8868 3.0238,1.5119 0.59302,0.39535 1.00794,1.00794 1.51191,1.5119 0.75595,0.75596 1.5119,1.51191 2.26786,2.26786 0.44461,0.44461 2.84877,2.67375 3.02381,3.02381 0.11269,0.22538 -0.17818,0.57777 0,0.75596 0.39842,0.39842 1.11348,0.35752 1.5119,0.75595 0.17818,0.17818 -0.11269,0.53057 0,0.75595 0.15937,0.31874 0.59659,0.43721 0.75595,0.75595 0.11269,0.22538 -0.17818,0.57777 0,0.75595 0.17818,0.17818 0.57777,-0.17818 0.75596,0 0.17817,0.17818 -0.0797,0.5169 0,0.75596 0.17817,0.53454 0.50396,1.00793 0.75595,1.5119 0.25198,0.50397 0.4434,1.04308 0.75595,1.51191 0.19767,0.29651 0.59658,0.43721 0.75595,0.75595 0.11269,0.22538 -0.11269,0.53057 0,0.75595 0.15937,0.31874 0.59659,0.43721 0.75596,0.75595 0.22538,0.45077 -0.22539,1.06115 0,1.51191 0.93413,1.86826 0.75595,-0.26094 0.75595,1.5119 0,0.25199 0,0.50397 0,0.75596 0,0.25198 0.17818,0.57777 0,0.75595 -0.0243,0.0243 -2.08452,0 -2.26786,0 -1.25992,0 -2.51984,0 -3.77976,0 -0.25199,0 -0.50397,0 -0.75595,0 -0.25199,0 -0.53057,0.11269 -0.75596,0 -0.63747,-0.31874 -0.83576,-1.28653 -1.5119,-1.51191 -0.47811,-0.15937 -1.06114,0.22538 -1.51191,0 -0.22538,-0.11269 0.17818,-0.57777 0,-0.75595 -0.22367,-0.22367 -2.55556,0.23412 -3.02381,0 -0.31873,-0.15937 -0.43721,-0.59658 -0.75595,-0.75595 -0.22538,-0.11269 -0.5169,0.0797 -0.75595,0 -0.53454,-0.17818 -0.97736,-0.57777 -1.5119,-0.75596 -0.53156,-0.17718 -3.57255,0.20722 -3.77977,0 -0.17818,-0.17817 0.17818,-0.57777 0,-0.75595 -0.17818,-0.17818 -0.5169,0.0797 -0.75595,0 -0.53454,-0.17818 -0.97737,-0.57777 -1.5119,-0.75595 -0.45353,-0.15118 -3.17655,0 -3.77977,0 -2.51984,0 -5.03968,0 -7.55952,0 -3.02381,0 -6.047619,0 -9.071428,0 -0.525796,0 -3.506385,-0.13669 -3.779761,0 -0.318738,0.15937 -0.437216,0.59658 -0.755954,0.75595 -0.450762,0.22539 -1.06114,-0.22538 -1.511903,0 -0.318738,0.15937 -0.437216,0.59659 -0.755954,0.75595 -0.22538,0.1127 -0.577771,-0.17817 -0.755952,0 -0.178178,0.17819 0.178181,0.57778 0,0.75596 -2.950281,2.95028 -0.405982,-0.17499 -2.267857,0.75595 -0.637474,0.31874 -0.87443,1.19317 -1.511904,1.51191 -0.225382,0.11268 -0.577773,-0.17818 -0.755954,0 -0.178178,0.17817 0.178181,0.57777 0,0.75595 -0.178178,0.17818 -0.57777,-0.17818 -0.755951,0 -0.178179,0.17818 0.178181,0.57777 0,0.75595 -0.178179,0.17818 -0.577774,-0.17818 -0.755952,0 -0.178181,0.17818 0.178178,0.57777 0,0.75595 -0.356359,0.35636 -1.155547,-0.35636 -1.511906,0 -0.946714,0.94672 1.517039,0.81196 -0.755952,1.51191 -1.906971,0.58723 -3.898714,0.85179 -5.848072,1.27768"
         style="fill:#ffaaaa;stroke:#000000;stroke-width:0.26458332px;stroke-linecap:butt;stroke-linejoin:miter;stroke-opacity:1" />
    </g>
  </g>
</svg>
